<?xml version="1.0" encoding="UTF-8"?>
<!DOCTYPE svg PUBLIC "-//W3C//DTD SVG 1.1//EN" "http://www.w3.org/Graphics/SVG/1.1/DTD/svg11.dtd">
<!-- Creator: CorelDRAW 2021 (64 Bit) -->
<svg xmlns="http://www.w3.org/2000/svg" xml:space="preserve" width="210mm" height="297mm" version="1.1" style="shape-rendering:geometricPrecision; text-rendering:geometricPrecision; image-rendering:optimizeQuality; fill-rule:evenodd; clip-rule:evenodd"
viewBox="0 0 21000 29700"
 xmlns:xlink="http://www.w3.org/1999/xlink"
 xmlns:xodm="http://www.corel.com/coreldraw/odm/2003">
 <defs>
  <style type="text/css">
   <![CDATA[
    .fil0 {fill:black}
   ]]>
  </style>
 </defs>
 <g id="Camada_x0020_1">
  <metadata id="CorelCorpID_0Corel-Layer"/>
  <g id="_2124853608608">
   <path class="fil0" d="M14320.5 18325.39l352.78 0 0 705.55 -705.55 0 0 -352.78 352.77 0 0 -352.77zm-352.77 -740.84l0 352.78 -388.06 0 0 -352.78 388.06 0zm-1834.45 -1093.61l1093.61 0 0 1093.61 -1093.61 0 0 -1093.61zm1446.39 -1446.38l0 352.77 -352.78 0 0 -352.77 352.78 0zm-1446.39 -740.84l0 352.78 352.78 0 0 388.06 388.06 0 0 1093.61 -740.84 0 0 -388.06 -352.77 0 0 740.83 -388.06 0 0 352.78 388.06 0 0 740.83 -388.06 0 0 352.78 740.83 0 0 388.06 740.84 0 0 -388.06 352.77 0 0 388.06 352.78 0 0 352.77 -705.55 0 0 352.78 -388.06 0 0 388.06 2575.28 0 0 -1834.45 -1093.61 0 0 -352.77 -388.06 0 0 -388.06 388.06 0 0 -352.78 -388.06 0 0 -740.83 388.06 0 0 -705.55 -388.06 0 0 -388.06 -352.78 0 0 -352.78 740.84 0 0 -352.77 -740.84 0 0 -388.06 1093.61 0 0 -352.78 -1834.44 0 0 352.78 388.06 0 0 388.06 -388.06 0 0 352.77 -352.78 0z"/>
   <path class="fil0" d="M8852.45 15750.11l352.78 0 0 388.06 -352.78 0 0 -388.06zm-740.83 0l388.06 0 0 388.06 -388.06 0 0 -388.06zm1834.44 -705.55l-1093.61 0 0 352.77 -1093.61 0 0 -352.77 -352.77 0 0 705.55 -388.06 0 0 -352.78 -352.78 0 0 740.84 352.78 0 0 352.77 388.06 0 0 -352.77 352.77 0 0 352.77 1093.61 0 0 352.78 352.78 0 0 -352.78 388.06 0 0 -352.77 352.77 0 0 -1093.61z"/>
   <path class="fil0" d="M6312.46 10670.12l1799.16 0 0 1799.16 -1799.16 0 0 -1799.16zm-388.06 2187.22l2575.28 0 0 -2575.28 -2575.28 0 0 2575.28z"/>
   <path class="fil0" d="M12874.12 10670.12l1799.16 0 0 1799.16 -1799.16 0 0 -1799.16zm-388.06 2187.22l2575.28 0 0 -2575.28 -2575.28 0 0 2575.28z"/>
   <path class="fil0" d="M6312.46 17231.78l1799.16 0 0 1799.16 -1799.16 0 0 -1799.16zm-388.06 2187.22l2575.28 0 0 -2575.28 -2575.28 0 0 2575.28z"/>
   <polygon class="fil0" points="9205.23,13210.11 9205.23,14303.72 9593.29,14303.72 9593.29,14656.5 9946.06,14656.5 9946.06,15044.56 10298.84,15044.56 10298.84,14303.72 11039.67,14303.72 11039.67,14656.5 10686.9,14656.5 10686.9,15044.56 11392.45,15044.56 11392.45,14303.72 12133.28,14303.72 12133.28,13950.95 11039.67,13950.95 11039.67,13562.89 11392.45,13562.89 11392.45,13210.11 10686.9,13210.11 10686.9,12469.28 10298.84,12469.28 10298.84,13562.89 9946.06,13562.89 9946.06,13950.95 9593.29,13950.95 9593.29,13210.11 "/>
   <path class="fil0" d="M9593.29 17584.55l0 740.84 -388.06 0 0 -740.84 388.06 0zm0 -352.77l352.77 0 0 352.77 -352.77 0 0 -352.77zm0 0l-740.84 0 0 1446.38 352.78 0 0 352.78 -352.78 0 0 388.06 740.84 0 0 -388.06 352.77 0 0 -1093.61 352.78 0 0 -705.55 740.83 0 0 -388.06 -1446.38 0 0 388.06z"/>
   <polygon class="fil0" points="10298.84,11022.89 10298.84,11375.67 9593.29,11375.67 9593.29,11763.73 9946.06,11763.73 9946.06,12116.5 9593.29,12116.5 9593.29,12857.34 9946.06,12857.34 9946.06,12469.28 10298.84,12469.28 10298.84,11763.73 10686.9,11763.73 10686.9,12116.5 11039.67,12116.5 11039.67,11763.73 12133.28,11763.73 12133.28,11022.89 11780.51,11022.89 11780.51,10670.12 11039.67,10670.12 11039.67,11375.67 10686.9,11375.67 10686.9,11022.89 "/>
   <path class="fil0" d="M7406.07 13950.95l-388.06 0 0 -388.06 388.06 0 0 388.06zm0 0l352.77 0 0 352.77 1093.61 0 0 -352.77 -740.83 0 0 -388.06 388.06 0 0 -352.78 -1834.45 0 0 352.78 -352.77 0 0 -352.78 -388.06 0 0 1446.39 388.06 0 0 -705.55 352.77 0 0 352.77 740.84 0 0 -352.77z"/>
   <polygon class="fil0" points="9205.23,13210.11 9205.23,12116.5 9593.29,12116.5 9593.29,11763.73 9205.23,11763.73 9205.23,11375.67 9593.29,11375.67 9593.29,11022.89 10298.84,11022.89 10298.84,10670.12 10686.9,10670.12 10686.9,10282.06 9205.23,10282.06 9205.23,11022.89 8852.45,11022.89 8852.45,13210.11 "/>
   <polygon class="fil0" points="11039.67,19030.94 11039.67,18678.16 11392.45,18678.16 11392.45,19030.94 12486.06,19030.94 12486.06,18678.16 12133.28,18678.16 12133.28,18325.39 11039.67,18325.39 11039.67,17937.33 10298.84,17937.33 10298.84,18325.39 10686.9,18325.39 10686.9,18678.16 10298.84,18678.16 10298.84,19419 10686.9,19419 10686.9,19030.94 "/>
   <polygon class="fil0" points="13967.73,15044.56 14320.5,15044.56 14320.5,15750.11 14673.28,15750.11 14673.28,16138.17 15061.34,16138.17 15061.34,15397.33 14673.28,15397.33 14673.28,15044.56 15061.34,15044.56 15061.34,13950.95 14673.28,13950.95 14673.28,13562.89 14320.5,13562.89 14320.5,14303.72 14673.28,14303.72 14673.28,14656.5 13967.73,14656.5 "/>
   <polygon class="fil0" points="6665.23,12116.5 7758.84,12116.5 7758.84,11022.89 6665.23,11022.89 "/>
   <polygon class="fil0" points="13226.89,12116.5 14320.5,12116.5 14320.5,11022.89 13226.89,11022.89 "/>
   <polygon class="fil0" points="6665.23,18678.16 7758.84,18678.16 7758.84,17584.55 6665.23,17584.55 "/>
   <polygon class="fil0" points="11039.67,12116.5 11039.67,12857.34 11392.45,12857.34 11392.45,12469.28 11780.51,12469.28 11780.51,13210.11 12133.28,13210.11 12133.28,12116.5 "/>
   <polygon class="fil0" points="5924.4,16490.94 6312.46,16490.94 6312.46,15044.56 5924.4,15044.56 "/>
   <polygon class="fil0" points="11392.45,16490.94 11392.45,16138.17 10686.9,16138.17 10686.9,15750.11 10298.84,15750.11 10298.84,16490.94 "/>
   <polygon class="fil0" points="13967.73,17231.78 15061.34,17231.78 15061.34,16843.72 13967.73,16843.72 "/>
   <polygon class="fil0" points="7758.84,15044.56 8499.68,15044.56 8499.68,14656.5 7758.84,14656.5 "/>
   <polygon class="fil0" points="7406.07,15044.56 7406.07,14656.5 6665.23,14656.5 6665.23,15044.56 "/>
   <polygon class="fil0" points="11780.51,15750.11 11780.51,15397.33 11039.67,15397.33 11039.67,15750.11 "/>
   <polygon class="fil0" points="12486.06,17231.78 12874.12,17231.78 12874.12,16843.72 12486.06,16843.72 "/>
   <polygon class="fil0" points="11392.45,19030.94 11039.67,19030.94 11039.67,19419 11392.45,19419 "/>
   <polygon class="fil0" points="11780.51,10670.12 12133.28,10670.12 12133.28,10282.06 11780.51,10282.06 "/>
   <polygon class="fil0" points="10686.9,15044.56 10298.84,15044.56 10298.84,15397.33 10686.9,15397.33 "/>
   <polygon class="fil0" points="12133.28,15750.11 12486.06,15750.11 12486.06,15397.33 12133.28,15397.33 "/>
   <polygon class="fil0" points="13967.73,16490.94 14320.5,16490.94 14320.5,16138.17 13967.73,16138.17 "/>
   <polygon class="fil0" points="11780.51,15397.33 12133.28,15397.33 12133.28,15044.56 11780.51,15044.56 "/>
  </g>
 </g>
</svg>
